<svg width="160" height="38" viewBox="0 0 160 38" xmlns="http://www.w3.org/2000/svg"><title>9DF76105-924D-477D-8A6C-812691FB30B7</title><path d="M37.647 0v28.5h-9.412l9.412 9.5h9.412V9.5L37.647 0zM18.824 19l9.411 9.5v-19L18.824 19zm-9.412 0V9.5l9.412 9.5v19H9.412L0 28.5h9.412V19zm69.345-9.467h2.756v23.483h-3.126l.033-16.987-7.059 13.224H69.01l-7.093-13.058.034 16.821h-3.126V9.533h2.79l8.605 16.256 8.538-16.256zm21.95 15.923H89.108c.247 3.441 1.972 5.162 5.177 5.162 1.883 0 3.585-.61 5.11-1.832l1.041 2.365c-.762.644-1.703 1.155-2.823 1.533-1.121.377-2.264.566-3.429.566-2.621 0-4.689-.743-6.202-2.232-1.512-1.488-2.268-3.542-2.268-6.163 0-1.665.33-3.141.991-4.43.661-1.287 1.591-2.286 2.79-2.997 1.199-.71 2.56-1.066 4.085-1.066 2.218 0 3.96.71 5.226 2.131 1.266 1.422 1.9 3.387 1.9 5.896v1.067zm-10.169-5.414c-.773.812-1.238 1.971-1.395 3.482h8.639c-.067-1.51-.454-2.67-1.16-3.482-.706-.81-1.697-1.215-2.975-1.215-1.3 0-2.336.405-3.109 1.215zm12.857 11.142l1.042-2.43c1.68 1.287 3.641 1.931 5.883 1.931 1.097 0 1.937-.183 2.52-.55.583-.366.874-.882.874-1.549 0-.577-.196-1.032-.588-1.366-.392-.332-1.07-.61-2.034-.832l-2.722-.6c-1.458-.332-2.555-.877-3.294-1.632-.74-.754-1.11-1.71-1.11-2.864 0-1.466.6-2.653 1.799-3.564 1.198-.91 2.773-1.366 4.722-1.366 1.166 0 2.275.183 3.328.55 1.053.366 1.96.882 2.723 1.549l-1.042 2.364c-1.614-1.265-3.283-1.899-5.009-1.899-1.03 0-1.844.2-2.437.6-.593.4-.89.944-.89 1.632 0 .556.184 1.005.554 1.349.37.345.958.606 1.764.783l2.79.633c1.592.355 2.757.905 3.497 1.649.739.744 1.109 1.715 1.109 2.915 0 1.465-.6 2.626-1.798 3.48-1.2.855-2.819 1.283-4.857 1.283-2.847 0-5.121-.689-6.824-2.066zm28.992-13.19c1.064 1.088 1.596 2.743 1.596 4.963v10.06h-3.26v-2.699c-.427.956-1.06 1.683-1.9 2.182-.84.5-1.82.75-2.941.75-1.075 0-2.062-.217-2.958-.65-.896-.433-1.596-1.038-2.1-1.816a4.668 4.668 0 0 1-.757-2.597c0-1.177.308-2.104.924-2.782.616-.677 1.636-1.16 3.059-1.448 1.423-.289 3.378-.433 5.866-.433h.773v-.967c0-1.243-.264-2.142-.79-2.697-.527-.555-1.384-.833-2.572-.833-1.86 0-3.72.566-5.58 1.698l-1.007-2.365c.873-.6 1.932-1.083 3.176-1.449 1.243-.366 2.437-.55 3.58-.55 2.196 0 3.826.545 4.89 1.633zm-1.698 8.294v-.866h-.605c-1.748 0-3.093.078-4.034.233-.941.156-1.613.417-2.016.783-.403.366-.605.894-.605 1.582 0 .778.285 1.427.856 1.949.572.522 1.306.783 2.202.783 1.233 0 2.24-.417 3.025-1.25.784-.832 1.177-1.904 1.177-3.214zm7.932 6.728V16.761h3.395v16.255h-3.395zm-.235-20.018V9.499h3.9v3.499h-3.9zm11.244 19.219a7.033 7.033 0 0 1-2.824-2.915c-.66-1.254-.991-2.725-.991-4.413 0-1.687.342-3.175 1.025-4.463a7.341 7.341 0 0 1 2.891-2.998c1.244-.71 2.694-1.066 4.353-1.066a9.83 9.83 0 0 1 3.311.566c1.064.378 1.933.888 2.605 1.533l-1.042 2.398c-1.48-1.2-3.015-1.799-4.605-1.799-1.569 0-2.796.505-3.68 1.515-.886 1.01-1.329 2.437-1.329 4.28 0 1.822.437 3.227 1.311 4.215.874.987 2.106 1.482 3.698 1.482 1.59 0 3.126-.6 4.605-1.799L160 31.184c-.718.645-1.613 1.15-2.689 1.516-1.076.366-2.197.55-3.362.55-1.658 0-3.097-.345-4.319-1.033z" fill="#FFF" fill-rule="evenodd"/></svg>